<!DOCTYPE svg PUBLIC "-//W3C//DTD SVG 1.1//EN" "http://www.w3.org/Graphics/SVG/1.1/DTD/svg11.dtd">
<!-- Uploaded to: SVG Repo, www.svgrepo.com, Transformed by: SVG Repo Mixer Tools -->
<svg fill="rgb(36, 156, 182)" width="800px" height="800px" viewBox="0 0 96.00 96.00" data-name="Your Icons" id="Your_Icons" xmlns="http://www.w3.org/2000/svg" stroke="rgb(36, 156, 182)" stroke-width="0.384" transform="matrix(-1, 0, 0, 1, 0, 0)">
<g id="SVGRepo_bgCarrier" stroke-width="0"/>
<g id="SVGRepo_tracerCarrier" stroke-linecap="round" stroke-linejoin="round"/>
<g id="SVGRepo_iconCarrier">
<title/>
<path d="M81.6,79H77.34l-.24-.64a13.18,13.18,0,0,0-24.3,0l-.25.64H35.69l-.24-.64A13,13,0,0,0,23.3,70.28a13,13,0,0,0-12.15,8.07L10.9,79H4.11V64.47A8.75,8.75,0,0,1,13,55.92H51.86a1,1,0,0,1,0,2H13a6.75,6.75,0,0,0-6.91,6.55V77H9.54a15.22,15.22,0,0,1,27.51,0H51.19A15.22,15.22,0,0,1,78.7,77h.9V56.92a1,1,0,1,1,2,0Z"/>
<path d="M80.6,57.92a1,1,0,0,1-1-1V48.46a8.55,8.55,0,0,0-8.76-8.3H38.29a4.17,4.17,0,0,0-3.83,2.18L27.21,55.83l24.66.09a1,1,0,0,1,1,1,1,1,0,0,1-1,1h0l-28-.11,8.82-16.42a6.22,6.22,0,0,1,5.6-3.23H70.84A10.55,10.55,0,0,1,81.6,48.46v8.46A1,1,0,0,1,80.6,57.92Z"/>
<path d="M51.86,79a1,1,0,0,1-1-1V39.16a1,1,0,0,1,2,0V78A1,1,0,0,1,51.86,79Z"/>
<path d="M46,66.81h-5.3a2.58,2.58,0,0,1,0-5.15H46a2.58,2.58,0,0,1,0,5.15Zm-5.3-3.15a.54.54,0,0,0-.53.54.56.56,0,0,0,.53.61H46a.55.55,0,0,0,.54-.54.56.56,0,0,0-.54-.61Z"/>
<path d="M23.33,93a10.81,10.81,0,1,1,11-10.81A10.92,10.92,0,0,1,23.33,93Zm0-19.61a8.81,8.81,0,1,0,9,8.8A8.91,8.91,0,0,0,23.33,73.39Z"/>
<path d="M65.09,92.83A10.81,10.81,0,1,1,76.09,82,10.92,10.92,0,0,1,65.09,92.83Zm0-19.62a8.81,8.81,0,1,0,9,8.81A8.92,8.92,0,0,0,65.09,73.21Z"/>
<path d="M61.67,57.92H51.86a1,1,0,0,1,0-2h9.81A5.62,5.62,0,0,0,64.79,55L79.66,45a1,1,0,0,1,1.39.28,1,1,0,0,1-.28,1.38l-14.87,10A7.73,7.73,0,0,1,61.67,57.92Z"/>
<path d="M23.33,88.1a5.91,5.91,0,1,1,6-5.91A6,6,0,0,1,23.33,88.1Zm0-9.81a3.91,3.91,0,1,0,4,3.9A4,4,0,0,0,23.33,78.29Z"/>
<path d="M65.09,88.1a5.91,5.91,0,1,1,6-5.91A6,6,0,0,1,65.09,88.1Zm0-9.81a3.91,3.91,0,1,0,4,3.9A4,4,0,0,0,65.09,78.29Z"/>
<path d="M80.55,67.9h-1V45.53h1a7.88,7.88,0,0,1,7.87,7.87V60A7.88,7.88,0,0,1,80.55,67.9Zm1-20.29V65.82A5.89,5.89,0,0,0,86.42,60V53.4A5.89,5.89,0,0,0,81.55,47.61Z"/>
<path d="M87.42,57.4a1,1,0,0,1,0-2A2.77,2.77,0,0,0,90,52.48V25.6c0-6.15-4.52-11.15-10.08-11.15H41.33a1,1,0,0,1,0-2H79.92C86.58,12.45,92,18.35,92,25.6V52.48A4.76,4.76,0,0,1,87.42,57.4Z"/>
<path d="M40,21.12H32.79a2.3,2.3,0,0,1-2.29-2.29V8.63a2.3,2.3,0,0,1,2.29-2.3H40a2.3,2.3,0,0,1,2.29,2.3v10.2A2.3,2.3,0,0,1,40,21.12ZM32.79,8.33a.29.29,0,0,0-.29.3v10.2a.29.29,0,0,0,.29.29H40a.29.29,0,0,0,.29-.29V8.63a.29.29,0,0,0-.29-.3Z"/>
<path d="M33.88,21.12H32.79a2.3,2.3,0,0,1-2.29-2.29V8.63a2.3,2.3,0,0,1,2.29-2.3h1.09a2.3,2.3,0,0,1,2.29,2.3v10.2A2.3,2.3,0,0,1,33.88,21.12ZM32.79,8.33a.29.29,0,0,0-.29.3v10.2a.29.29,0,0,0,.29.29h1.09a.29.29,0,0,0,.29-.29V8.63a.29.29,0,0,0-.29-.3Z"/>
<path d="M30.77,13.13H25.48a1.74,1.74,0,0,1-1.73-1.73V9.71A1.73,1.73,0,0,1,25.48,8h5.29A1.73,1.73,0,0,1,32.5,9.71V11.4A1.74,1.74,0,0,1,30.77,13.13Zm-5-2H30.5V10H25.75Z"/>
<path d="M30.65,19.86h-5.3a1.72,1.72,0,0,1-1.72-1.73V16.44a1.73,1.73,0,0,1,1.72-1.73h5.3a1.74,1.74,0,0,1,1.73,1.73v1.69A1.73,1.73,0,0,1,30.65,19.86Zm-5-2h4.75V16.71H25.63Z"/>
<path d="M88,93H81.67a1,1,0,0,1,0-2H88a1,1,0,1,1,0,2Z"/>
<path d="M76.92,93H53.83a1,1,0,1,1,0-2H76.92a1,1,0,1,1,0,2Z"/>
<path d="M49.92,93H45.33a1,1,0,1,1,0-2h4.59a1,1,0,1,1,0,2Z"/>
<path d="M39.83,93H13.35a1,1,0,1,1,0-2H39.83a1,1,0,0,1,0,2Z"/>
<path d="M8.42,93H5.73a1,1,0,0,1,0-2H8.42a1,1,0,1,1,0,2Z"/>
</g>
</svg>